# xmcd
#
# Track frame offsets:
#	150
#	9312
#	17945
#	28007
#	35065
#	45795
#	51115
#	58292
#	60880
#	78257
#	89877
#	99652
#	109585
#	117202
#	126502
#	134965
#	142090
#	155232
#	161770
#	169015
#
# Disc length: 2296 seconds
#
# Revision: 0
# Processed by: cddbd v1.5.1PL0 Copyright (c) Steve Scherf et al.
# Submitted via: EasyCDDAExtractor 4.6.9.1
#
DISCID=1e08f614
DTITLE=Don Reno and Red Smiley - On Stage (1957 -1958)
DYEAR=1996
DGENRE=Bluegrass
TTITLE0=Your Love Is Dying
TTITLE1=Don't Stop Now
TTITLE2=Banjo Medley
TTITLE3=Cowhide Joke
TTITLE4=Your Old Standby
TTITLE5=Billy In The Lowground
TTITLE6=Springtime In Glory
TTITLE7=Mention Of Banjo Contest
TTITLE8=I Can't Stop Loving You
TTITLE9=When You And I Were Young, Maggie
TTITLE10=Bonaparte's Retreat
TTITLE11=Sawing On The Strings
TTITLE12=Banjo Signal
TTITLE13=Gone Home
TTITLE14=He Will Set Your Fields On Fire
TTITLE15=Big Ball In Brooklyn
TTITLE16=Call Me
TTITLE17=Grey Eagle
TTITLE18=John Henry
TTITLE19=Closing Theme
EXTD=
EXTT0=
EXTT1=
EXTT2=
EXTT3=
EXTT4=
EXTT5=
EXTT6=
EXTT7=
EXTT8=
EXTT9=
EXTT10=
EXTT11=
EXTT12=
EXTT13=
EXTT14=
EXTT15=
EXTT16=
EXTT17=
EXTT18=
EXTT19=
PLAYORDER=
